<svg width="24" height="24" viewBox="0 0 24 24" fill="none" xmlns="http://www.w3.org/2000/svg">
<path opacity="0.8" fill-rule="evenodd" clip-rule="evenodd" d="M14.9388 0C14.9388 3.96201 13.3649 7.76174 10.5633 10.5633C10.0898 11.0368 9.58774 11.4753 9.06122 11.877V23.9924C9.06322 20.0332 10.6369 16.2365 13.4367 13.4367C13.9102 12.9632 14.4123 12.5247 14.9388 12.123V0H14.9388ZM14.9388 23.9941C14.9388 23.9961 14.9388 23.998 14.9388 24H9.06122L14.9388 24V23.9941Z" fill="#fff"/>
<path opacity="0.8" fill-rule="evenodd" clip-rule="evenodd" d="M9.06122 0.00415039C9.06012 2.40584 8.10558 4.70891 6.40725 6.40724C4.70794 8.10655 2.40319 9.06121 0 9.06121V14.9388C3.29235 14.9388 6.47264 13.8519 9.06122 11.877V0.00415039Z" fill="#fff"/>
<path opacity="0.8" fill-rule="evenodd" clip-rule="evenodd" d="M14.9387 23.9941C14.9403 21.593 15.8948 19.2906 17.5927 17.5927C19.292 15.8934 21.5968 14.9387 23.9999 14.9387V9.06119C20.7076 9.06119 17.5273 10.148 14.9387 12.123V23.9941Z" fill="#fff"/>
<path fill-rule="evenodd" clip-rule="evenodd" d="M10.5633 10.5633C13.3649 7.76174 14.9388 3.96201 14.9388 0H9.06122V11.877C9.58774 11.4753 10.0898 11.0368 10.5633 10.5633Z" fill="#fff"/>
<path fill-rule="evenodd" clip-rule="evenodd" d="M9.06117 23.9924C9.06117 23.995 9.06117 23.9975 9.06117 24H14.9387V12.123C14.4122 12.5247 13.9102 12.9632 13.4366 13.4367C10.6369 16.2365 9.06317 20.0332 9.06117 23.9924Z" fill="#fff"/>
</svg>
